<svg xmlns="http://www.w3.org/2000/svg" viewBox="0 0 80 80">
  <path stroke="#000" stroke-linejoin="round" stroke-width="9" d="M21.55 22.15c4.22-.03 9.04 1.6 12.3 4.86l-.04.07a14.6 14.6 0 012 2c.23.19 2.07 1.89 2 2l.57 1.83c-.94-1-2.02-1.86-3.24-2.56-9.6-5.6-24.5-.6-24.5 12.2-.1 12.49 14.45 9.04 15.3 8.83a14.9 14.9 0 007-3.67l-2.77 3.11c-14.35 6.01-.9-.01 2.85-3.06 1.55 1.56 3.9 4.19 5.48 5.72-6.4 6.01-19.03 6.24-26-1.88-4.09-3.8-7.95-8.01-7.8-14 0-9.57 7.75-15.4 16.9-15.4Zm23.35.45h.94c1.67 1.67 3.32 3.34 5.01 4.99v9.74l17.4-14.7h1.4l5 5-13.9 11.8 14.5 18.1H74.02c-5.27-5.3-10.11-10.97-14.6-17L50.83 47.8v9.7H49.9l-5-5Z"/>
  <path stroke="#fff" stroke-linejoin="round" stroke-width="5" d="M45.4 43.2V42l22.9-19.4h1.4zm-.47 9.3V22.6h.94v29.9zm24.2 0-14.2-17.7.72-.64 14.7 18.3zm-47.53.4c-2.48 0-4.76-.37-6.83-1.1a16.7 16.7 0 01-5.34-3.2 14.8 14.8 0 01-4.69-11c0-2.22.4-4.27 1.2-6.15a14.5 14.5 0 013.5-4.9 16.3 16.3 0 015.33-3.25 19.5 19.5 0 016.83-1.15c1.71 0 3.3.21 4.77.64 1.51.4 2.89.95 4.14 1.66a15.6 15.6 0 013.42 2.56l-.47.9c-.94-1-2.02-1.85-3.25-2.56a16.9 16.9 0 00-8.57-2.26c-2.33 0-4.47.37-6.4 1.1a15.2 15.2 0 00-5.04 3.04 14 14 0 00-3.32 4.6 14.2 14.2 0 00-1.17 5.78c0 2.07.39 3.98 1.16 5.71.8 1.73 1.9 3.26 3.32 4.57a15.5 15.5 0 005.04 2.98c1.93.71 4.07 1.07 6.4 1.07a18 18 0 008.19-1.91 15.1 15.1 0 003.16-2.27l.55.77c-.97.9-2.08 1.69-3.33 2.34a19.9 19.9 0 01-4.05 1.5c-1.42.34-2.94.51-4.56.51z"/>
</svg>