<svg xmlns="http://www.w3.org/2000/svg" viewBox="0 0 80 50">
  <path stroke="#000000" stroke-linejoin="round" stroke-width="9" d="m44.9 37.4 5 5h.93v-9.7l8.59-7.27c4.49 6.03 9.33 11.7 14.6 17h1.23l-14.5-18.1 13.9-11.8-5-5h-1.4l-17.4 14.7v-9.74c-1.69-1.65-3.34-3.32-5.01-4.99h-.94zM21.6 7.06c-9.15 0-16.9 5.83-16.9 15.4-.15 5.99 3.71 10.2 7.8 14 6.97 8.12 19.6 7.89 26 1.88-1.58-1.53-3.93-4.16-5.48-5.72-3.75 3.05-17.2 9.07-2.85 3.06l2.77-3.11a14.9 14.9 0 0 1-7 3.67c-.85.21-15.4 3.66-15.3-8.83 0-12.8 14.9-17.8 24.5-12.2 1.22.7 2.3 1.56 3.24 2.56l-.57-1.83c.07-.11-1.77-1.81-2-2a14.6 14.6 0 0 0-2-2l.04-.07c-3.26-3.26-8.08-4.89-12.3-4.86z"/>
  <path stroke="#ffffff" stroke-linejoin="round" stroke-width="5" d="M45.4 28.1v-1.2L68.3 7.5h1.4zm-.47 9.3V7.5h.94v29.9zm24.2 0-14.2-17.7.72-.64 14.7 18.3z"/>
  <path stroke="#ffffff" stroke-linejoin="round" stroke-width="5" d="M21.6 37.8c-2.48 0-4.76-.37-6.83-1.1a16.68 16.68 0 0 1-5.34-3.2 14.79 14.79 0 0 1-4.69-10.97c0-2.22.4-4.27 1.2-6.15a14.54 14.54 0 0 1 3.5-4.9 16.28 16.28 0 0 1 5.33-3.25 19.53 19.53 0 0 1 6.83-1.15c1.71 0 3.3.21 4.77.64 1.51.4 2.89.95 4.14 1.66a15.6 15.6 0 0 1 3.42 2.56l-.47.9c-.94-1-2.02-1.85-3.25-2.56a16.88 16.88 0 0 0-8.57-2.26c-2.33 0-4.47.37-6.4 1.1a15.15 15.15 0 0 0-5.04 3.04 14 14 0 0 0-3.32 4.6 14.18 14.18 0 0 0-1.17 5.78c0 2.07.39 3.98 1.16 5.71.8 1.73 1.9 3.26 3.32 4.57a15.47 15.47 0 0 0 5.04 2.98c1.93.71 4.07 1.07 6.4 1.07a18 18 0 0 0 8.19-1.91 15.13 15.13 0 0 0 3.16-2.27l.55.77c-.97.9-2.08 1.69-3.33 2.34a19.9 19.9 0 0 1-4.05 1.5c-1.42.34-2.94.51-4.56.51z"/>
</svg>
